# This file uses centimeters as units for non-parametric coordinates.

mtllib blackface.mtl
g default
v 1.705569 -0.419229 0.154718
v 1.468359 -0.927743 -0.376974
v 1.357239 -0.545928 -1.039862
v 1.525772 0.198559 -0.917857
v 1.741052 0.276864 -0.179567
v 0.727493 1.353629 1.061256
v 1.296029 0.841882 0.949752
v 1.536282 0.907419 0.217950
v 1.116232 1.459670 -0.122824
v 0.616373 1.735444 0.398368
v 0.487991 -0.783044 1.607822
v 0.987850 -1.058819 1.086630
v 1.465308 -0.484766 0.886517
v 1.260546 0.145789 1.284037
v 0.656525 -0.038558 1.729827
v -1.069132 0.792700 1.490056
v -0.649080 0.240449 1.830831
v 0.087989 0.473190 1.841330
v 0.123473 1.169283 1.507045
v -0.591667 1.366752 1.289947
v -1.657718 0.600463 1.027279
v -1.768838 0.982279 0.364390
v -2.006048 0.473764 -0.167301
v -2.041532 -0.222329 0.166984
v -1.826251 -0.144024 0.905274
v -1.596509 -0.787347 -0.962335
v -1.027972 -1.299093 -1.073840
v -0.916852 -1.680909 -0.410951
v -1.416712 -1.405135 0.110240
v -1.836762 -0.852884 -0.230533
v 0.750640 -1.567331 0.554939
v 0.013570 -1.800072 0.544439
v -0.201712 -1.878377 -0.193851
v 0.402308 -1.694030 -0.639642
v 0.990893 -1.501794 -0.176863
v -0.388469 -0.418655 -1.853914
v 0.348601 -0.185914 -1.843414
v 0.768653 -0.738165 -1.502640
v 0.291188 -1.312217 -1.302530
v -0.423952 -1.114748 -1.519629
v 0.185810 1.578835 -1.078214
v 0.900950 1.381367 -0.861116
v 1.105722 0.750811 -1.258632
v 0.517136 0.558574 -1.721410
v -0.051400 1.070322 -1.609907
v -0.098768 1.932912 0.181268
v -0.314049 1.854607 -0.557023
v -1.051119 1.621866 -0.567522
v -1.291372 1.556329 0.164279
v -0.702787 1.748565 0.627058
v -1.406201 -0.696276 1.246049
v -1.201430 -1.326831 0.848532
v -0.486290 -1.524300 1.065631
v -0.249080 -1.015787 1.597323
v -0.817616 -0.504039 1.708827
vt 0.987679 0.348568
vt 0.967742 0.452624
vt 0.903226 0.452624
vt 0.883289 0.348568
vt 0.935484 0.284258
vt 0.225806 0.168366
vt 0.205870 0.064310
vt 0.258065 0.000000
vt 0.310259 0.064310
vt 0.290323 0.168366
vt 0.193548 0.452624
vt 0.129032 0.452624
vt 0.109096 0.348568
vt 0.161290 0.284258
vt 0.213485 0.348568
vt 0.387097 0.452624
vt 0.322581 0.452624
vt 0.302644 0.348568
vt 0.354839 0.284258
vt 0.407033 0.348568
vt 0.419355 0.547376
vt 0.483871 0.547376
vt 0.503808 0.651432
vt 0.451613 0.715742
vt 0.399418 0.651432
vt 0.161290 1.000000
vt 0.109096 0.935690
vt 0.129032 0.831634
vt 0.193548 0.831634
vt 0.213485 0.935690
vt 0.096774 0.547376
vt 0.116711 0.651432
vt 0.064516 0.715742
vt 0.012321 0.651432
vt 0.032258 0.547376
vt 0.786515 0.651432
vt 0.806452 0.547376
vt 0.870968 0.547376
vt 0.890904 0.651432
vt 0.838710 0.715742
vt 0.689741 0.348568
vt 0.741935 0.284258
vt 0.794130 0.348568
vt 0.774194 0.452624
vt 0.709677 0.452624
vt 0.548387 0.284258
vt 0.600582 0.348568
vt 0.580645 0.452624
vt 0.516129 0.452624
vt 0.496192 0.348568
vt 0.310259 0.651432
vt 0.258065 0.715742
vt 0.205870 0.651432
vt 0.225806 0.547376
vt 0.290323 0.547376
vn 0.966158 -0.235839 0.104494
vn 0.835306 -0.516350 -0.188803
vn 0.774008 -0.305730 -0.554473
vn 0.866977 0.104952 -0.487172
vn 0.985732 0.148146 -0.079908
vn 0.443492 0.690174 0.571817
vn 0.757114 0.407878 0.510308
vn 0.889645 0.444030 0.106624
vn 0.657932 0.748670 -0.081357
vn 0.382195 0.900794 0.206148
vn 0.323431 -0.420800 0.847538
vn 0.590037 -0.583256 0.558273
vn 0.853420 -0.266593 0.447886
vn 0.740463 0.081240 0.667168
vn 0.411957 -0.030343 0.910698
vn -0.497817 0.395937 0.771630
vn -0.266304 0.090591 0.959623
vn 0.147740 0.213739 0.965655
vn 0.160059 0.603671 0.781001
vn -0.234434 0.712600 0.661243
vn -0.774008 0.305730 0.554473
vn -0.835306 0.516350 0.188803
vn -0.966158 0.235839 -0.104494
vn -0.985732 -0.148146 0.079908
vn -0.866977 -0.104952 0.487172
vn -0.757114 -0.407878 -0.510308
vn -0.443492 -0.690174 -0.571817
vn -0.382195 -0.900794 -0.206148
vn -0.657932 -0.748670 0.081357
vn -0.889645 -0.444030 -0.106624
vn 0.478727 -0.821873 0.308781
vn 0.072137 -0.950260 0.302988
vn -0.046619 -0.993455 -0.104275
vn 0.286576 -0.891764 -0.350186
vn 0.611258 -0.785721 -0.094903
vn -0.140485 -0.219685 -0.965403
vn 0.266105 -0.091298 -0.959611
vn 0.497817 -0.395937 -0.771630
vn 0.234434 -0.712600 -0.661243
vn -0.160059 -0.603671 -0.781001
vn 0.162420 0.820855 -0.547555
vn 0.556913 0.711926 -0.427796
vn 0.669870 0.364092 -0.647079
vn 0.345189 0.258049 -0.902361
vn 0.031567 0.540344 -0.840852
vn 0.046619 0.993455 0.104275
vn -0.072137 0.950260 -0.302988
vn -0.478727 0.821873 -0.308781
vn -0.611258 0.785721 0.094903
vn -0.286576 0.891764 0.350186
vn -0.669870 -0.364092 0.647079
vn -0.556913 -0.711926 0.427796
vn -0.162420 -0.820855 0.547555
vn -0.030860 -0.540192 0.840976
vn -0.345073 -0.257365 0.902601
s off
g blackface_object
usemtl blackface
f 1/1/1 2/2/2 3/3/3 4/4/4 5/5/5
f 6/6/6 7/7/7 8/8/8 9/9/9 10/10/10
f 11/11/11 12/12/12 13/13/13 14/14/14 15/15/15
f 16/16/16 17/17/17 18/18/18 19/19/19 20/20/20
f 21/21/21 22/22/22 23/23/23 24/24/24 25/25/25
f 26/26/26 27/27/27 28/28/28 29/29/29 30/30/30
f 31/31/31 32/32/32 33/33/33 34/34/34 35/35/35
f 36/36/36 37/37/37 38/38/38 39/39/39 40/40/40
f 41/41/41 42/42/42 43/43/43 44/44/44 45/45/45
f 46/46/46 47/47/47 48/48/48 49/49/49 50/50/50
f 51/51/51 52/52/52 53/53/53 54/54/54 55/55/55
