# This file uses centimeters as units for non-parametric coordinates.

mtllib backwall.mtl
g default
v -22.195679 -7.151286 31.531572
v -17.466442 -7.151286 31.531572
v -12.737207 -7.151286 31.531572
v -8.007968 -7.151286 31.531572
v -3.872775 -7.151286 31.531572
v -0.281425 -7.151286 31.531572
v 3.332389 -7.151286 31.531572
v 8.094718 -7.151286 31.531572
v 12.405864 -7.151286 31.531572
v 16.717010 -7.151286 31.531572
v 21.028156 -7.151286 31.531572
v -22.195679 -2.065894 31.531572
v -17.466442 -2.065894 31.531572
v -12.737207 -2.065894 31.531572
v -8.007968 -2.065894 31.531572
v -3.872775 -2.065894 31.531572
v -0.281425 -2.065894 31.531572
v 3.332389 -2.065894 31.531572
v 8.094718 -2.065894 31.531572
v 12.405864 -2.065894 31.531572
v 16.717010 -2.065894 31.531572
v 21.028156 -2.065894 31.531572
v -22.195679 4.328675 31.531572
v -17.466442 4.328675 31.531572
v -12.737207 4.328675 31.531572
v -8.007968 4.328675 31.531572
v 8.094718 4.328675 31.531572
v 12.405864 4.328675 31.531572
v 16.717010 4.328675 31.531572
v 21.028156 4.328675 31.531572
v -22.195679 7.256066 31.531572
v -17.466442 7.256066 31.531572
v -12.737207 7.256066 31.531572
v -8.007968 7.256066 31.531572
v -3.872775 7.256066 31.531572
v -0.281425 7.256066 31.531572
v 3.332389 7.256066 31.531572
v 8.094718 7.256066 31.531572
v 12.405864 7.256066 31.531572
v 16.717010 7.256066 31.531572
v 21.028156 7.256066 31.531572
v -22.195679 11.231507 31.531572
v -17.466442 11.231507 31.531572
v -12.737207 11.231507 31.531572
v -8.007968 11.231507 31.531572
v -3.872775 11.231507 31.531572
v -0.281425 11.231507 31.531572
v 3.332389 11.231507 31.531572
v 8.094718 11.231507 31.531572
v 12.405864 11.231507 31.531572
v 16.717010 11.231507 31.531572
v 21.028156 11.231507 31.531572
v -22.195679 15.206940 31.531572
v -17.466442 15.206940 31.531572
v -12.737207 15.206940 31.531572
v -8.007968 15.206940 31.531572
v -3.872775 15.206940 31.531572
v -0.281425 15.206940 31.531572
v 3.332389 15.206940 31.531572
v 8.094718 15.206940 31.531572
v 12.405864 15.206940 31.531572
v 16.717010 15.206940 31.531572
v 21.028156 15.206940 31.531572
v -22.195679 19.182372 31.531572
v -17.466442 19.182372 31.531572
v -12.737207 19.182372 31.531572
v -8.007968 19.182372 31.531572
v -3.872775 19.182372 31.531572
v -0.281425 19.182372 31.531572
v 3.332389 19.182372 31.531572
v 8.094718 19.182372 31.531572
v 12.405864 19.182372 31.531572
v 16.717010 19.182372 31.531572
v 21.028156 19.182372 31.531572
v -22.195679 23.157805 31.531572
v -17.466442 23.157805 31.531572
v -12.737207 23.157805 31.531572
v -8.007968 23.157805 31.531572
v -3.872775 23.157805 31.531572
v -0.281425 23.157805 31.531572
v 3.332389 23.157805 31.531572
v 8.094718 23.157805 31.531572
v 12.405864 23.157805 31.531572
v 16.717010 23.157805 31.531572
v 21.028156 23.157805 31.531572
v -22.195679 27.133242 31.531572
v -17.466442 27.133242 31.531572
v -12.737207 27.133242 31.531572
v -8.007968 27.133242 31.531572
v -3.872775 27.133242 31.531572
v -0.281425 27.133242 31.531572
v 3.332389 27.133242 31.531572
v 8.094718 27.133242 31.531572
v 12.405864 27.133242 31.531572
v 16.717010 27.133242 31.531572
v 21.028156 27.133242 31.531572
v -22.195679 31.891978 31.531572
v -17.466442 31.891978 31.531572
v -12.737207 31.891978 31.531572
v -8.007968 31.891978 31.531572
v -3.872775 31.891978 31.531572
v -0.281425 31.891978 31.531572
v 3.332389 31.891978 31.531572
v 8.094718 31.891978 31.531572
v 12.405864 31.891978 31.531572
v 16.717010 31.891978 31.531572
v 21.028156 31.891978 31.531572
v -22.195679 38.275547 31.531572
v -17.466442 38.275547 31.531572
v -12.737207 38.275547 31.531572
v -8.007968 38.275547 31.531572
v -3.872775 38.275547 31.531572
v -0.281425 38.275547 31.531572
v 3.332389 38.275547 31.531572
v 8.094718 38.275547 31.531572
v 12.405864 38.275547 31.531572
v 16.717010 38.275547 31.531572
v 21.028156 38.275547 31.531572
vt 0.000000 0.000000
vt 0.100000 0.000000
vt 0.200000 0.000000
vt 0.300000 0.000000
vt 0.400000 0.000000
vt 0.500000 0.000000
vt 0.600000 0.000000
vt 0.700000 0.000000
vt 0.800000 0.000000
vt 0.900000 0.000000
vt 1.000000 0.000000
vt 0.000000 0.100000
vt 0.100000 0.100000
vt 0.200000 0.100000
vt 0.300000 0.100000
vt 0.400000 0.100000
vt 0.500000 0.100000
vt 0.600000 0.100000
vt 0.700000 0.100000
vt 0.800000 0.100000
vt 0.900000 0.100000
vt 1.000000 0.100000
vt 0.000000 0.200000
vt 0.100000 0.200000
vt 0.200000 0.200000
vt 0.300000 0.200000
vt 0.700000 0.200000
vt 0.800000 0.200000
vt 0.900000 0.200000
vt 1.000000 0.200000
vt 0.000000 0.300000
vt 0.100000 0.300000
vt 0.200000 0.300000
vt 0.300000 0.300000
vt 0.400000 0.300000
vt 0.500000 0.300000
vt 0.600000 0.300000
vt 0.700000 0.300000
vt 0.800000 0.300000
vt 0.900000 0.300000
vt 1.000000 0.300000
vt 0.000000 0.400000
vt 0.100000 0.400000
vt 0.200000 0.400000
vt 0.300000 0.400000
vt 0.400000 0.400000
vt 0.500000 0.400000
vt 0.600000 0.400000
vt 0.700000 0.400000
vt 0.800000 0.400000
vt 0.900000 0.400000
vt 1.000000 0.400000
vt 0.000000 0.500000
vt 0.100000 0.500000
vt 0.200000 0.500000
vt 0.300000 0.500000
vt 0.400000 0.500000
vt 0.500000 0.500000
vt 0.600000 0.500000
vt 0.700000 0.500000
vt 0.800000 0.500000
vt 0.900000 0.500000
vt 1.000000 0.500000
vt 0.000000 0.600000
vt 0.100000 0.600000
vt 0.200000 0.600000
vt 0.300000 0.600000
vt 0.400000 0.600000
vt 0.500000 0.600000
vt 0.600000 0.600000
vt 0.700000 0.600000
vt 0.800000 0.600000
vt 0.900000 0.600000
vt 1.000000 0.600000
vt 0.000000 0.700000
vt 0.100000 0.700000
vt 0.200000 0.700000
vt 0.300000 0.700000
vt 0.400000 0.700000
vt 0.500000 0.700000
vt 0.600000 0.700000
vt 0.700000 0.700000
vt 0.800000 0.700000
vt 0.900000 0.700000
vt 1.000000 0.700000
vt 0.000000 0.800000
vt 0.100000 0.800000
vt 0.200000 0.800000
vt 0.300000 0.800000
vt 0.400000 0.800000
vt 0.500000 0.800000
vt 0.600000 0.800000
vt 0.700000 0.800000
vt 0.800000 0.800000
vt 0.900000 0.800000
vt 1.000000 0.800000
vt 0.000000 0.900000
vt 0.100000 0.900000
vt 0.200000 0.900000
vt 0.300000 0.900000
vt 0.400000 0.900000
vt 0.500000 0.900000
vt 0.600000 0.900000
vt 0.700000 0.900000
vt 0.800000 0.900000
vt 0.900000 0.900000
vt 1.000000 0.900000
vt 0.000000 1.000000
vt 0.100000 1.000000
vt 0.200000 1.000000
vt 0.300000 1.000000
vt 0.400000 1.000000
vt 0.500000 1.000000
vt 0.600000 1.000000
vt 0.700000 1.000000
vt 0.800000 1.000000
vt 0.900000 1.000000
vt 1.000000 1.000000
vn 0.000000 -0.000000 1.000000
vn 0.000000 -0.000000 1.000000
vn 0.000000 -0.000000 1.000000
vn 0.000000 -0.000000 1.000000
vn 0.000000 -0.000000 1.000000
vn 0.000000 -0.000000 1.000000
vn 0.000000 -0.000000 1.000000
vn 0.000000 -0.000000 1.000000
vn 0.000000 -0.000000 1.000000
vn 0.000000 -0.000000 1.000000
vn 0.000000 -0.000000 1.000000
vn 0.000000 -0.000000 1.000000
vn 0.000000 -0.000000 1.000000
vn 0.000000 -0.000000 1.000000
vn 0.000000 -0.000000 1.000000
vn 0.000000 -0.000000 1.000000
vn 0.000000 -0.000000 1.000000
vn 0.000000 -0.000000 1.000000
vn 0.000000 -0.000000 1.000000
vn 0.000000 -0.000000 1.000000
vn 0.000000 -0.000000 1.000000
vn 0.000000 -0.000000 1.000000
vn 0.000000 -0.000000 1.000000
vn 0.000000 -0.000000 1.000000
vn 0.000000 -0.000000 1.000000
vn 0.000000 -0.000000 1.000000
vn 0.000000 -0.000000 1.000000
vn 0.000000 -0.000000 1.000000
vn 0.000000 -0.000000 1.000000
vn 0.000000 -0.000000 1.000000
vn 0.000000 -0.000000 1.000000
vn 0.000000 -0.000000 1.000000
vn 0.000000 -0.000000 1.000000
vn 0.000000 -0.000000 1.000000
vn 0.000000 -0.000000 1.000000
vn 0.000000 -0.000000 1.000000
vn 0.000000 -0.000000 1.000000
vn 0.000000 -0.000000 1.000000
vn -0.000000 0.000000 1.000000
vn -0.000000 0.000000 1.000000
vn -0.000000 0.000000 1.000000
vn 0.000000 -0.000000 1.000000
vn -0.000000 -0.000000 1.000000
vn 0.000000 -0.000000 1.000000
vn -0.000000 -0.000000 1.000000
vn 0.000000 -0.000000 1.000000
vn -0.000000 -0.000000 1.000000
vn 0.000000 -0.000000 1.000000
vn 0.000000 -0.000000 1.000000
vn 0.000000 -0.000000 1.000000
vn 0.000000 -0.000000 1.000000
vn 0.000000 -0.000000 1.000000
vn -0.000000 0.000000 1.000000
vn -0.000000 0.000000 1.000000
vn -0.000000 0.000000 1.000000
vn 0.000000 -0.000000 1.000000
vn 0.000000 -0.000000 1.000000
vn 0.000000 -0.000000 1.000000
vn 0.000000 -0.000000 1.000000
vn 0.000000 -0.000000 1.000000
vn 0.000000 -0.000000 1.000000
vn 0.000000 -0.000000 1.000000
vn 0.000000 -0.000000 1.000000
vn -0.000000 -0.000000 1.000000
vn -0.000000 -0.000000 1.000000
vn -0.000000 -0.000000 1.000000
vn -0.000000 -0.000000 1.000000
vn -0.000000 -0.000000 1.000000
vn -0.000000 -0.000000 1.000000
vn -0.000000 -0.000000 1.000000
vn -0.000000 -0.000000 1.000000
vn -0.000000 -0.000000 1.000000
vn -0.000000 -0.000000 1.000000
vn -0.000000 -0.000000 1.000000
vn -0.000000 -0.000000 1.000000
vn -0.000000 -0.000000 1.000000
vn -0.000000 -0.000000 1.000000
vn -0.000000 -0.000000 1.000000
vn -0.000000 -0.000000 1.000000
vn -0.000000 -0.000000 1.000000
vn -0.000000 -0.000000 1.000000
vn -0.000000 -0.000000 1.000000
vn -0.000000 -0.000000 1.000000
vn -0.000000 -0.000000 1.000000
vn -0.000000 -0.000000 1.000000
vn 0.000000 -0.000000 1.000000
vn 0.000000 -0.000000 1.000000
vn 0.000000 -0.000000 1.000000
vn 0.000000 -0.000000 1.000000
vn 0.000000 -0.000000 1.000000
vn 0.000000 -0.000000 1.000000
vn 0.000000 -0.000000 1.000000
vn 0.000000 -0.000000 1.000000
vn 0.000000 -0.000000 1.000000
vn 0.000000 -0.000000 1.000000
vn 0.000000 -0.000000 1.000000
vn 0.000000 -0.000000 1.000000
vn 0.000000 -0.000000 1.000000
vn 0.000000 -0.000000 1.000000
vn 0.000000 -0.000000 1.000000
vn 0.000000 -0.000000 1.000000
vn 0.000000 -0.000000 1.000000
vn 0.000000 -0.000000 1.000000
vn 0.000000 -0.000000 1.000000
vn 0.000000 -0.000000 1.000000
vn 0.000000 -0.000000 1.000000
vn 0.000000 -0.000000 1.000000
vn -0.000000 -0.000000 1.000000
vn -0.000000 -0.000000 1.000000
vn -0.000000 -0.000000 1.000000
vn -0.000000 -0.000000 1.000000
vn -0.000000 -0.000000 1.000000
vn -0.000000 -0.000000 1.000000
vn -0.000000 -0.000000 1.000000
vn -0.000000 -0.000000 1.000000
vn -0.000000 -0.000000 1.000000
vn -0.000000 -0.000000 1.000000
vn -0.000000 -0.000000 1.000000
s 1
g backwall_object
usemtl backwall
f 1/1/1 2/2/2 13/13/3 12/12/4
f 2/2/2 3/3/5 14/14/6 13/13/3
f 3/3/5 4/4/7 15/15/8 14/14/6
f 4/4/7 5/5/9 16/16/10 15/15/8
f 5/5/9 6/6/11 17/17/12 16/16/10
f 6/6/11 7/7/13 18/18/14 17/17/12
f 7/7/13 8/8/15 19/19/16 18/18/14
f 8/8/15 9/9/17 20/20/18 19/19/16
f 9/9/17 10/10/19 21/21/20 20/20/18
f 10/10/19 11/11/21 22/22/22 21/21/20
f 12/12/4 13/13/3 24/24/23 23/23/24
f 13/13/3 14/14/6 25/25/25 24/24/23
f 14/14/6 15/15/8 26/26/26 25/25/25
f 19/19/16 20/20/18 28/28/27 27/27/28
f 20/20/18 21/21/20 29/29/29 28/28/27
f 21/21/20 22/22/22 30/30/30 29/29/29
f 23/23/24 24/24/23 32/32/31 31/31/32
f 24/24/23 25/25/25 33/33/33 32/32/31
f 25/25/25 26/26/26 34/34/34 33/33/33
f 27/27/28 28/28/27 39/39/35 38/38/36
f 28/28/27 29/29/29 40/40/37 39/39/35
f 29/29/29 30/30/30 41/41/38 40/40/37
f 31/31/32 32/32/31 43/43/39 42/42/40
f 32/32/31 33/33/33 44/44/41 43/43/39
f 33/33/33 34/34/34 45/45/42 44/44/41
f 34/34/34 35/35/43 46/46/44 45/45/42
f 35/35/43 36/36/45 47/47/46 46/46/44
f 36/36/45 37/37/47 48/48/48 47/47/46
f 37/37/47 38/38/36 49/49/49 48/48/48
f 38/38/36 39/39/35 50/50/50 49/49/49
f 39/39/35 40/40/37 51/51/51 50/50/50
f 40/40/37 41/41/38 52/52/52 51/51/51
f 42/42/40 43/43/39 54/54/53 53/53/54
f 43/43/39 44/44/41 55/55/55 54/54/53
f 44/44/41 45/45/42 56/56/56 55/55/55
f 45/45/42 46/46/44 57/57/57 56/56/56
f 46/46/44 47/47/46 58/58/58 57/57/57
f 47/47/46 48/48/48 59/59/59 58/58/58
f 48/48/48 49/49/49 60/60/60 59/59/59
f 49/49/49 50/50/50 61/61/61 60/60/60
f 50/50/50 51/51/51 62/62/62 61/61/61
f 51/51/51 52/52/52 63/63/63 62/62/62
f 53/53/54 54/54/53 65/65/64 64/64/65
f 54/54/53 55/55/55 66/66/66 65/65/64
f 55/55/55 56/56/56 67/67/67 66/66/66
f 56/56/56 57/57/57 68/68/68 67/67/67
f 57/57/57 58/58/58 69/69/69 68/68/68
f 58/58/58 59/59/59 70/70/70 69/69/69
f 59/59/59 60/60/60 71/71/71 70/70/70
f 60/60/60 61/61/61 72/72/72 71/71/71
f 61/61/61 62/62/62 73/73/73 72/72/72
f 62/62/62 63/63/63 74/74/74 73/73/73
f 64/64/65 65/65/64 76/76/75 75/75/76
f 65/65/64 66/66/66 77/77/77 76/76/75
f 66/66/66 67/67/67 78/78/78 77/77/77
f 67/67/67 68/68/68 79/79/79 78/78/78
f 68/68/68 69/69/69 80/80/80 79/79/79
f 69/69/69 70/70/70 81/81/81 80/80/80
f 70/70/70 71/71/71 82/82/82 81/81/81
f 71/71/71 72/72/72 83/83/83 82/82/82
f 72/72/72 73/73/73 84/84/84 83/83/83
f 73/73/73 74/74/74 85/85/85 84/84/84
f 75/75/76 76/76/75 87/87/86 86/86/87
f 76/76/75 77/77/77 88/88/88 87/87/86
f 77/77/77 78/78/78 89/89/89 88/88/88
f 78/78/78 79/79/79 90/90/90 89/89/89
f 79/79/79 80/80/80 91/91/91 90/90/90
f 80/80/80 81/81/81 92/92/92 91/91/91
f 81/81/81 82/82/82 93/93/93 92/92/92
f 82/82/82 83/83/83 94/94/94 93/93/93
f 83/83/83 84/84/84 95/95/95 94/94/94
f 84/84/84 85/85/85 96/96/96 95/95/95
f 86/86/87 87/87/86 98/98/97 97/97/98
f 87/87/86 88/88/88 99/99/99 98/98/97
f 88/88/88 89/89/89 100/100/100 99/99/99
f 89/89/89 90/90/90 101/101/101 100/100/100
f 90/90/90 91/91/91 102/102/102 101/101/101
f 91/91/91 92/92/92 103/103/103 102/102/102
f 92/92/92 93/93/93 104/104/104 103/103/103
f 93/93/93 94/94/94 105/105/105 104/104/104
f 94/94/94 95/95/95 106/106/106 105/105/105
f 95/95/95 96/96/96 107/107/107 106/106/106
f 97/97/98 98/98/97 109/109/108 108/108/109
f 98/98/97 99/99/99 110/110/110 109/109/108
f 99/99/99 100/100/100 111/111/111 110/110/110
f 100/100/100 101/101/101 112/112/112 111/111/111
f 101/101/101 102/102/102 113/113/113 112/112/112
f 102/102/102 103/103/103 114/114/114 113/113/113
f 103/103/103 104/104/104 115/115/115 114/114/114
f 104/104/104 105/105/105 116/116/116 115/115/115
f 105/105/105 106/106/106 117/117/117 116/116/116
f 106/106/106 107/107/107 118/118/118 117/117/117
