# This file uses centimeters as units for non-parametric coordinates.

mtllib testface.mtl
g default
v 0.087990 0.473190 1.841331
v -0.649080 0.240449 1.830831
v -0.817616 -0.504039 1.708827
v -0.249080 -1.015787 1.597323
v 0.487991 -0.783044 1.607822
v 0.656526 -0.038558 1.729827
vt 0.290323 0.357871
vt 0.322581 0.452624
vt 0.290323 0.547376
vt 0.225806 0.547376
vt 0.193548 0.452624
vt 0.225806 0.357871
vn 0.134356 0.224686 0.965124
vn -0.265131 0.094753 0.959545
vn -0.345754 -0.261393 0.901181
vn -0.035027 -0.541082 0.840240
vn 0.323431 -0.420800 0.847538
vn 0.411957 -0.030343 0.910698
s off
g testface_object pSolid1
usemtl testface
f 1/1/1 2/2/2 3/3/3 4/4/4 5/5/5 6/6/6
