# This file uses centimeters as units for non-parametric coordinates.

mtllib patch.mtl
g default
v -0.337029 17.448779 1.337733
v -0.234479 17.443557 1.367678
v -0.129887 17.440985 1.389919
v -0.023901 17.441079 1.404319
v 0.082828 17.443838 1.410790
v 0.189642 17.449244 1.409290
v 0.295881 17.457265 1.399830
v 0.400891 17.467851 1.382468
v -0.331158 17.507042 1.331391
v -0.230542 17.501919 1.360771
v -0.127925 17.499396 1.382592
v -0.023938 17.499488 1.396720
v 0.080777 17.502195 1.403069
v 0.185574 17.507499 1.401597
v 0.289809 17.515369 1.392316
v 0.392837 17.525755 1.375282
v -0.324585 17.564952 1.322873
v -0.226060 17.559936 1.351643
v -0.125575 17.557465 1.373011
v -0.023748 17.557555 1.386845
v 0.078792 17.560205 1.393062
v 0.181412 17.565399 1.391621
v 0.283481 17.573106 1.382533
v 0.384369 17.583276 1.365852
v -0.317321 17.622420 1.312193
v -0.221038 17.617518 1.340308
v -0.122839 17.615103 1.361189
v -0.023330 17.615191 1.374709
v 0.076876 17.617781 1.380784
v 0.177161 17.622857 1.379376
v 0.276907 17.630388 1.370495
v 0.375499 17.640327 1.354194
v -0.309376 17.679356 1.299367
v -0.215484 17.674575 1.326784
v -0.119724 17.672221 1.347147
v -0.022685 17.672307 1.360331
v 0.075033 17.674832 1.366255
v 0.172828 17.679782 1.364883
v 0.270097 17.687126 1.356221
v 0.366241 17.696818 1.340325
v -0.300764 17.735673 1.284415
v -0.209407 17.731022 1.311091
v -0.116233 17.728731 1.330905
v -0.021815 17.728814 1.343733
v 0.073265 17.731271 1.349497
v 0.168419 17.736088 1.348161
v 0.263062 17.743233 1.339734
v 0.356610 17.752664 1.324267
v -0.443798 17.398226 1.303777
v -0.342189 17.390252 1.341890
v -0.436907 17.456618 1.300269
v -0.237862 17.384940 1.372354
v -0.131459 17.382323 1.394981
v -0.023635 17.382419 1.409631
v 0.084943 17.385225 1.416213
v 0.193607 17.390725 1.414688
v 0.301687 17.398885 1.405064
v 0.408517 17.409655 1.387401
v 0.513437 17.422967 1.361808
v 0.504024 17.480937 1.357311
v -0.429151 17.514733 1.294633
v 0.494024 17.538594 1.350599
v -0.420542 17.572484 1.286879
v 0.483454 17.595848 1.341682
v -0.411094 17.629780 1.277018
v 0.472329 17.652613 1.330574
v -0.400822 17.686533 1.265065
v 0.460667 17.708799 1.317292
v -0.389740 17.742656 1.251040
v 0.448486 17.764321 1.301856
v -0.291497 17.791284 1.267360
v -0.377866 17.798063 1.234962
v -0.202816 17.786769 1.293255
v -0.112371 17.784545 1.312488
v -0.020719 17.784626 1.324941
v 0.071575 17.787011 1.330536
v 0.163942 17.791686 1.329239
v 0.255812 17.798623 1.321059
v 0.346619 17.807777 1.306045
v 0.435804 17.819093 1.284290
vt 0.812500 0.625000
vt 0.825000 0.625000
vt 0.825000 0.637500
vt 0.812500 0.637500
vt 0.837499 0.625000
vt 0.837499 0.637500
vt 0.849999 0.625000
vt 0.849999 0.637500
vt 0.862499 0.625000
vt 0.862499 0.637500
vt 0.874999 0.625000
vt 0.874999 0.637500
vt 0.887499 0.625000
vt 0.887499 0.637500
vt 0.899999 0.625000
vt 0.899999 0.637500
vt 0.912499 0.625000
vt 0.912499 0.637500
vt 0.924999 0.625000
vt 0.924999 0.637500
vt 0.825000 0.650000
vt 0.812500 0.650000
vt 0.837499 0.650000
vt 0.849999 0.650000
vt 0.862499 0.650000
vt 0.874999 0.650000
vt 0.887499 0.650000
vt 0.899999 0.650000
vt 0.912499 0.650000
vt 0.924999 0.650000
vt 0.825000 0.662500
vt 0.812500 0.662500
vt 0.837499 0.662500
vt 0.849999 0.662500
vt 0.862499 0.662500
vt 0.874999 0.662500
vt 0.887499 0.662500
vt 0.899999 0.662500
vt 0.912499 0.662500
vt 0.924999 0.662500
vt 0.825000 0.675000
vt 0.812500 0.675000
vt 0.837499 0.675000
vt 0.849999 0.675000
vt 0.862499 0.675000
vt 0.874999 0.675000
vt 0.887499 0.675000
vt 0.899999 0.675000
vt 0.912499 0.675000
vt 0.924999 0.675000
vt 0.825000 0.687500
vt 0.812500 0.687500
vt 0.837499 0.687500
vt 0.849999 0.687500
vt 0.862499 0.687500
vt 0.874999 0.687500
vt 0.887499 0.687500
vt 0.899999 0.687500
vt 0.912499 0.687500
vt 0.924999 0.687500
vt 0.825000 0.700000
vt 0.812500 0.700000
vt 0.837499 0.700000
vt 0.849999 0.700000
vt 0.862499 0.700000
vt 0.874999 0.700000
vt 0.887499 0.700000
vt 0.899999 0.700000
vt 0.912499 0.700000
vt 0.924999 0.700000
vt 0.825000 0.712500
vt 0.812500 0.712500
vt 0.837499 0.712500
vt 0.849999 0.712500
vt 0.862499 0.712500
vt 0.874999 0.712500
vt 0.887499 0.712500
vt 0.899999 0.712500
vt 0.912499 0.712500
vt 0.924999 0.712500
vn -0.378449 0.080256 0.922136
vn -0.310703 0.074942 0.947548
vn -0.307263 0.113962 0.944776
vn -0.373848 0.119188 0.919800
vn -0.241151 0.071401 0.967857
vn -0.238895 0.110480 0.964740
vn -0.170215 0.069657 0.982942
vn -0.169167 0.108765 0.979568
vn -0.098334 0.069721 0.992708
vn -0.098511 0.108828 0.989167
vn -0.025948 0.071592 0.997096
vn -0.027358 0.110667 0.993481
vn 0.046495 0.075258 0.996080
vn 0.043851 0.114271 0.992481
vn 0.118548 0.080697 0.989664
vn 0.114677 0.119618 0.986175
vn 0.189768 0.087877 0.977888
vn 0.184684 0.126676 0.974600
vn 0.259722 0.096749 0.960825
vn 0.253439 0.135400 0.957829
vn -0.303349 0.152803 0.940548
vn -0.368678 0.157930 0.916043
vn -0.236271 0.149387 0.960135
vn -0.167859 0.147705 0.974683
vn -0.098536 0.147766 0.984102
vn -0.028726 0.149571 0.988334
vn 0.041140 0.153108 0.987353
vn 0.110629 0.158354 0.981165
vn 0.179315 0.165278 0.969809
vn 0.246773 0.173838 0.953354
vn -0.298967 0.191409 0.934869
vn -0.362938 0.196430 0.910874
vn -0.233283 0.188065 0.954050
vn -0.166292 0.186418 0.968295
vn -0.098409 0.186478 0.977518
vn -0.030049 0.188245 0.981662
vn 0.038364 0.191708 0.980702
vn 0.106410 0.196845 0.974643
vn 0.173670 0.203625 0.963523
vn 0.239726 0.212007 0.947409
vn -0.294124 0.229722 0.927749
vn -0.356639 0.234628 0.904300
vn -0.229935 0.226455 0.946493
vn -0.164469 0.224844 0.960414
vn -0.098130 0.224902 0.969428
vn -0.031326 0.226628 0.973477
vn 0.035530 0.230013 0.972539
vn 0.102028 0.235033 0.966618
vn 0.167756 0.241659 0.955750
vn 0.232310 0.249851 0.940004
vn -0.288828 0.267679 0.919199
vn -0.349791 0.272463 0.896332
vn -0.226233 0.264492 0.937477
vn -0.162392 0.262922 0.951052
vn -0.097700 0.262979 0.959842
vn -0.032554 0.264663 0.963791
vn 0.032642 0.267963 0.962876
vn 0.097488 0.272859 0.957102
vn 0.161585 0.279321 0.946504
vn 0.224535 0.287307 0.931149
vn -0.283086 0.305224 0.909231
vn -0.342403 0.309879 0.886981
vn -0.222181 0.302122 0.927015
vn -0.160065 0.300595 0.940224
vn -0.097119 0.300651 0.948776
vn -0.033733 0.302289 0.952619
vn 0.029703 0.305500 0.951729
vn 0.092798 0.310264 0.946110
vn 0.155164 0.316552 0.935799
vn 0.216414 0.324322 0.920858
vn -0.276908 0.342297 0.897861
vn -0.334491 0.346819 0.876260
vn -0.217788 0.339287 0.915125
vn -0.157491 0.337804 0.927947
vn -0.096389 0.337858 0.936248
vn -0.034860 0.339448 0.939978
vn 0.026718 0.342566 0.939114
vn 0.087965 0.347190 0.933660
vn 0.148503 0.353293 0.923651
vn 0.207963 0.360840 0.909146
s 1
g patch_object spherewithPatch_pSphere2
usemtl patch
f 49/1/1 50/2/2 1/3/3 51/4/4
f 50/2/2 52/5/5 2/6/6 1/3/3
f 52/5/5 53/7/7 3/8/8 2/6/6
f 53/7/7 54/9/9 4/10/10 3/8/8
f 54/9/9 55/11/11 5/12/12 4/10/10
f 55/11/11 56/13/13 6/14/14 5/12/12
f 56/13/13 57/15/15 7/16/16 6/14/14
f 57/15/15 58/17/17 8/18/18 7/16/16
f 58/17/17 59/19/19 60/20/20 8/18/18
f 51/4/4 1/3/3 9/21/21 61/22/22
f 1/3/3 2/6/6 10/23/23 9/21/21
f 2/6/6 3/8/8 11/24/24 10/23/23
f 3/8/8 4/10/10 12/25/25 11/24/24
f 4/10/10 5/12/12 13/26/26 12/25/25
f 5/12/12 6/14/14 14/27/27 13/26/26
f 6/14/14 7/16/16 15/28/28 14/27/27
f 7/16/16 8/18/18 16/29/29 15/28/28
f 8/18/18 60/20/20 62/30/30 16/29/29
f 61/22/22 9/21/21 17/31/31 63/32/32
f 9/21/21 10/23/23 18/33/33 17/31/31
f 10/23/23 11/24/24 19/34/34 18/33/33
f 11/24/24 12/25/25 20/35/35 19/34/34
f 12/25/25 13/26/26 21/36/36 20/35/35
f 13/26/26 14/27/27 22/37/37 21/36/36
f 14/27/27 15/28/28 23/38/38 22/37/37
f 15/28/28 16/29/29 24/39/39 23/38/38
f 16/29/29 62/30/30 64/40/40 24/39/39
f 63/32/32 17/31/31 25/41/41 65/42/42
f 17/31/31 18/33/33 26/43/43 25/41/41
f 18/33/33 19/34/34 27/44/44 26/43/43
f 19/34/34 20/35/35 28/45/45 27/44/44
f 20/35/35 21/36/36 29/46/46 28/45/45
f 21/36/36 22/37/37 30/47/47 29/46/46
f 22/37/37 23/38/38 31/48/48 30/47/47
f 23/38/38 24/39/39 32/49/49 31/48/48
f 24/39/39 64/40/40 66/50/50 32/49/49
f 65/42/42 25/41/41 33/51/51 67/52/52
f 25/41/41 26/43/43 34/53/53 33/51/51
f 26/43/43 27/44/44 35/54/54 34/53/53
f 27/44/44 28/45/45 36/55/55 35/54/54
f 28/45/45 29/46/46 37/56/56 36/55/55
f 29/46/46 30/47/47 38/57/57 37/56/56
f 30/47/47 31/48/48 39/58/58 38/57/57
f 31/48/48 32/49/49 40/59/59 39/58/58
f 32/49/49 66/50/50 68/60/60 40/59/59
f 67/52/52 33/51/51 41/61/61 69/62/62
f 33/51/51 34/53/53 42/63/63 41/61/61
f 34/53/53 35/54/54 43/64/64 42/63/63
f 35/54/54 36/55/55 44/65/65 43/64/64
f 36/55/55 37/56/56 45/66/66 44/65/65
f 37/56/56 38/57/57 46/67/67 45/66/66
f 38/57/57 39/58/58 47/68/68 46/67/67
f 39/58/58 40/59/59 48/69/69 47/68/68
f 40/59/59 68/60/60 70/70/70 48/69/69
f 69/62/62 41/61/61 71/71/71 72/72/72
f 41/61/61 42/63/63 73/73/73 71/71/71
f 42/63/63 43/64/64 74/74/74 73/73/73
f 43/64/64 44/65/65 75/75/75 74/74/74
f 44/65/65 45/66/66 76/76/76 75/75/75
f 45/66/66 46/67/67 77/77/77 76/76/76
f 46/67/67 47/68/68 78/78/78 77/77/77
f 47/68/68 48/69/69 79/79/79 78/78/78
f 48/69/69 70/70/70 80/80/80 79/79/79
